<svg xmlns="http://www.w3.org/2000/svg" viewBox="0 0 1600 1200">
  <defs>
    <linearGradient id="ground" x2="0" y2="1"><stop stop-color="#8ebf58"/><stop offset=".5" stop-color="#6da84b"/><stop offset="1" stop-color="#527f3b"/></linearGradient>
    <radialGradient id="meadow"><stop stop-color="#b7d873"/><stop offset="1" stop-color="#8fbd58" stop-opacity="0"/></radialGradient>
    <linearGradient id="water" x2="1"><stop stop-color="#1b7fa8"/><stop offset=".5" stop-color="#4fc3d4"/><stop offset="1" stop-color="#197295"/></linearGradient>
    <linearGradient id="rock" x2="1" y2="1"><stop stop-color="#dce4dd"/><stop offset=".45" stop-color="#8293a0"/><stop offset="1" stop-color="#4c6271"/></linearGradient>
    <linearGradient id="snow" x2="0" y2="1"><stop stop-color="#fff"/><stop offset="1" stop-color="#c7d8dd"/></linearGradient>
    <filter id="shadow"><feDropShadow dx="8" dy="12" stdDeviation="7" flood-color="#234b2e" flood-opacity=".42"/></filter>
    <filter id="soft"><feGaussianBlur stdDeviation="18"/></filter>
    <pattern id="grain" width="55" height="55" patternUnits="userSpaceOnUse"><circle cx="8" cy="10" r="2" fill="#d5e99a" opacity=".2"/><path d="M33 38q8-9 16 0" fill="none" stroke="#416f38" stroke-width="2" opacity=".18"/></pattern>
    <symbol id="tree" viewBox="0 0 52 74"><ellipse cx="29" cy="67" rx="20" ry="6" fill="#315f35" opacity=".35"/><path d="M24 45h8v23h-8z" fill="#6c4b2d"/><path d="M27 3 4 42h14L7 55h40L35 42h14z" fill="#174f38" stroke="#0f3c31" stroke-width="2"/><path d="M27 5 14 39h12z" fill="#3d8150" opacity=".9"/><path d="M13 53h28" stroke="#70a95e" stroke-width="3" opacity=".5"/></symbol>
    <symbol id="roundTree" viewBox="0 0 60 70"><ellipse cx="31" cy="64" rx="24" ry="6" fill="#315f35" opacity=".35"/><path d="M27 38h8v28h-8z" fill="#6c4b2d"/><circle cx="19" cy="31" r="17" fill="#286a3e"/><circle cx="39" cy="30" r="18" fill="#347e43"/><circle cx="29" cy="17" r="18" fill="#4d934c"/><circle cx="24" cy="18" r="8" fill="#74ae58" opacity=".55"/></symbol>
    <symbol id="mountain" viewBox="0 0 180 145"><ellipse cx="92" cy="132" rx="82" ry="14" fill="#355842" opacity=".28"/><path d="M4 132 70 35l24 29 24-48 59 116z" fill="url(#rock)" stroke="#526b76" stroke-width="4"/><path d="m70 35-21 52 25-15 16 15 28-71-24 48z" fill="#eaf1ec"/><path d="m118 16-18 45 20-11 18 17z" fill="url(#snow)"/><path d="m70 35 24 29-8 18-12-10-25 15z" fill="#fff" opacity=".9"/><path d="m118 16 59 116-55-67-22-4z" fill="#435968" opacity=".55"/></symbol>
  </defs>
  <rect width="1600" height="1200" fill="url(#ground)"/>
  <ellipse cx="350" cy="270" rx="430" ry="300" fill="url(#meadow)"/><ellipse cx="1180" cy="760" rx="520" ry="390" fill="url(#meadow)" opacity=".65"/>
  <rect width="1600" height="1200" fill="url(#grain)"/>
  <path d="M1020-30C920 115 1120 210 998 344S774 506 842 662s-25 255-176 322-160 160-195 256" fill="none" stroke="#d5d99a" stroke-width="94" opacity=".7"/>
  <path d="M1020-30C920 115 1120 210 998 344S774 506 842 662s-25 255-176 322-160 160-195 256" fill="none" stroke="url(#water)" stroke-width="72"/>
  <path d="M1024-20C946 118 1110 207 991 337S783 500 850 655" fill="none" stroke="#a7e1dc" stroke-width="8" opacity=".55"/>
  <path d="M-40 1050C170 970 275 1080 450 1000c108-50 175-40 250 4-90 130-186 210-330 230H-40z" fill="url(#water)" stroke="#d8d79b" stroke-width="18"/>
  <path d="M240 680C470 570 605 595 790 515S1080 440 1350 565" fill="none" stroke="#9b7040" stroke-width="28" opacity=".4"/>
  <path d="M240 675C470 565 605 590 790 510S1080 435 1350 560" fill="none" stroke="#d8b775" stroke-width="18"/>
  <path d="M470 170C560 345 610 475 790 510M1350 560c-150 135-205 260-235 430" fill="none" stroke="#d8b775" stroke-width="15"/>
  <g filter="url(#shadow)"><use href="#mountain" x="80" y="100" width="250"/><use href="#mountain" x="245" y="55" width="285"/><use href="#mountain" x="420" y="130" width="220"/><use href="#mountain" x="1090" y="710" width="260"/><use href="#mountain" x="1250" y="650" width="310"/></g>
  <g opacity=".98">
    <use href="#tree" x="30" y="390" width="70"/><use href="#tree" x="85" y="355" width="82"/><use href="#tree" x="145" y="405" width="68"/><use href="#tree" x="205" y="350" width="90"/><use href="#tree" x="275" y="405" width="72"/><use href="#tree" x="340" y="370" width="82"/>
    <use href="#tree" x="1120" y="80" width="80"/><use href="#tree" x="1180" y="110" width="68"/><use href="#tree" x="1240" y="55" width="92"/><use href="#tree" x="1315" y="100" width="78"/><use href="#tree" x="1380" y="62" width="90"/><use href="#tree" x="1460" y="120" width="75"/>
    <use href="#roundTree" x="80" y="780" width="78"/><use href="#roundTree" x="140" y="815" width="65"/><use href="#roundTree" x="195" y="765" width="86"/><use href="#roundTree" x="265" y="825" width="72"/><use href="#roundTree" x="330" y="780" width="76"/>
    <use href="#tree" x="900" y="820" width="72"/><use href="#tree" x="955" y="790" width="82"/><use href="#tree" x="1018" y="850" width="66"/><use href="#tree" x="1072" y="805" width="76"/>
    <use href="#tree" x="610" y="170" width="70"/><use href="#tree" x="665" y="135" width="84"/><use href="#tree" x="720" y="190" width="66"/><use href="#roundTree" x="760" y="145" width="72"/>
    <use href="#tree" x="1080" y="440" width="75"/><use href="#tree" x="1135" y="405" width="86"/><use href="#tree" x="1205" y="465" width="68"/><use href="#roundTree" x="1260" y="420" width="76"/>
    <use href="#roundTree" x="530" y="700" width="68"/><use href="#tree" x="580" y="665" width="82"/><use href="#tree" x="640" y="725" width="70"/>
  </g>
  <g transform="translate(1220 860) rotate(-8)"><rect width="230" height="145" rx="15" fill="#9ab65b" stroke="#d1c178" stroke-width="8"/><path d="M15 30h200M15 62h200M15 94h200M50 10v120M95 10v120M140 10v120M185 10v120" stroke="#d4a85d" stroke-width="8"/><path d="M28 15v110M73 15v110M118 15v110M163 15v110M208 15v110" stroke="#66883f" stroke-width="3"/></g>
  <g transform="translate(560 935)" fill="#718087" stroke="#41545b" stroke-width="6"><path d="m0 110 35-75 40 28 35-58 64 105z"/><path d="M50 110V60h90v50M78 60V25h35v35"/></g>
  <g fill="#e5d299" stroke="#766c55" stroke-width="5"><path d="M770 496h150v34H770z"/><path d="m780 496 20-25h90l20 25z"/><path d="M825 472v58"/></g>
  <g opacity=".32" filter="url(#soft)" fill="#fff"><ellipse cx="55" cy="1040" rx="150" ry="70"/><ellipse cx="1540" cy="300" rx="145" ry="66"/></g>
</svg>
